<svg xmlns="http://www.w3.org/2000/svg" version="1.1" xmlns:xlink="http://www.w3.org/1999/xlink" xmlns:svgjs="http://svgjs.dev/svgjs" width="1000" height="999" viewBox="0 0 1000 999"><g transform="matrix(1,0,0,1,-0.215743440233382,-0.21552769679306039)"><svg viewBox="0 0 343 343" data-background-color="#ffffff" preserveAspectRatio="xMidYMid meet" height="999" width="1000" xmlns="http://www.w3.org/2000/svg" xmlns:xlink="http://www.w3.org/1999/xlink"><g id="tight-bounds" transform="matrix(1,0,0,1,0.0740000000000407,0.07400000000001228)"><svg viewBox="0 0 342.85155851775386 342.85155851775386" height="342.85155851775386" width="342.85155851775386"><g><svg></svg></g><g><svg viewBox="0 0 342.85155851775386 342.85155851775386" height="342.85155851775386" width="342.85155851775386"><g><path d="M0 171.426c0-94.676 76.75-171.426 171.426-171.426 94.676 0 171.426 76.75 171.426 171.426 0 94.676-76.75 171.426-171.426 171.426-94.676 0-171.426-76.75-171.426-171.426zM171.426 340.705c93.49 0 169.279-75.789 169.279-169.279 0-93.49-75.789-169.279-169.279-169.28-93.49 0-169.279 75.789-169.28 169.28 0 93.49 75.789 169.279 169.28 169.279z" data-fill-palette-color="tertiary" fill="#6b7280" stroke="transparent"></path><ellipse rx="164.56874808852186" ry="164.56874808852186" cx="171.42577925887693" cy="171.42577925887693" fill="#6b7280" stroke="transparent" stroke-width="0" fill-opacity="1" data-fill-palette-color="tertiary"></ellipse></g><g transform="matrix(1,0,0,1,64.84655864529837,123.82125267977361)"><svg viewBox="0 0 213.1584412271571 95.20905315820664" height="95.20905315820664" width="213.1584412271571"><g><svg viewBox="0 0 213.1584412271571 95.20905315820664" height="95.20905315820664" width="213.1584412271571"><g><svg viewBox="0 0 213.1584412271571 95.20905315820664" height="95.20905315820664" width="213.1584412271571"><g transform="matrix(1,0,0,1,0,71.40724210306503)"><svg viewBox="0 0 213.1584412271571 23.80181105514161" height="23.80181105514161" width="213.1584412271571"><g><svg viewBox="0 0 213.1584412271571 23.80181105514161" height="23.80181105514161" width="213.1584412271571"><g><svg viewBox="0 0 213.1584412271571 23.80181105514161" height="23.80181105514161" width="213.1584412271571"><g transform="matrix(1,0,0,1,0,0)"><svg width="213.1584412271571" viewBox="4.349999904632568 -35.5 322.3699951171875 36" height="23.80181105514161" data-palette-color="#ffffff"><path d="M8.05 0L5.5 0Q4.95 0 4.65-0.33 4.35-0.65 4.35-1.15L4.35-1.15 4.35-33.8Q4.35-34.35 4.65-34.68 4.95-35 5.5-35L5.5-35 17.7-35Q23.35-35 26.65-32.35 29.95-29.7 29.95-24.5L29.95-24.5Q29.95-20.65 28.03-18.23 26.1-15.8 22.8-14.85L22.8-14.85 30.5-1.55Q30.65-1.25 30.65-1L30.65-1Q30.65-0.6 30.33-0.3 30 0 29.6 0L29.6 0 27.2 0Q26.35 0 25.95-0.45 25.55-0.9 25.25-1.35L25.25-1.35 18-14.05 9.25-14.05 9.25-1.15Q9.25-0.65 8.93-0.33 8.6 0 8.05 0L8.05 0ZM9.25-30.8L9.25-18.3 17.5-18.3Q21.25-18.3 23.1-19.88 24.95-21.45 24.95-24.55L24.95-24.55Q24.95-27.6 23.13-29.2 21.3-30.8 17.5-30.8L17.5-30.8 9.25-30.8ZM47.1 0.5L47.1 0.5Q43.3 0.5 40.75-0.95 38.2-2.4 36.85-4.98 35.5-7.55 35.35-10.85L35.35-10.85Q35.3-11.7 35.3-13.03 35.3-14.35 35.35-15.15L35.35-15.15Q35.5-18.5 36.87-21.05 38.25-23.6 40.8-25.05 43.35-26.5 47.1-26.5L47.1-26.5Q50.85-26.5 53.4-25.05 55.95-23.6 57.32-21.05 58.7-18.5 58.85-15.15L58.85-15.15Q58.9-14.35 58.9-13.03 58.9-11.7 58.85-10.85L58.85-10.85Q58.7-7.55 57.35-4.98 56-2.4 53.45-0.95 50.9 0.5 47.1 0.5ZM47.1-3.35L47.1-3.35Q50.2-3.35 52.05-5.33 53.9-7.3 54.05-11.1L54.05-11.1Q54.1-11.85 54.1-13 54.1-14.15 54.05-14.9L54.05-14.9Q53.9-18.7 52.05-20.68 50.2-22.65 47.1-22.65L47.1-22.65Q44-22.65 42.12-20.68 40.25-18.7 40.15-14.9L40.15-14.9Q40.1-14.15 40.1-13 40.1-11.85 40.15-11.1L40.15-11.1Q40.25-7.3 42.12-5.33 44-3.35 47.1-3.35ZM74.85 0.5L74.85 0.5Q71.65 0.5 69.42-0.93 67.2-2.35 66.05-4.9 64.9-7.45 64.9-10.75L64.9-10.75 64.9-24.85Q64.9-25.35 65.22-25.68 65.55-26 66.05-26L66.05-26 68.55-26Q69.05-26 69.37-25.68 69.7-25.35 69.7-24.85L69.7-24.85 69.7-11Q69.7-3.55 76.2-3.55L76.2-3.55Q79.3-3.55 81.17-5.53 83.05-7.5 83.05-11L83.05-11 83.05-24.85Q83.05-25.35 83.37-25.68 83.7-26 84.2-26L84.2-26 86.7-26Q87.2-26 87.5-25.68 87.8-25.35 87.8-24.85L87.8-24.85 87.8-1.15Q87.8-0.65 87.5-0.33 87.2 0 86.7 0L86.7 0 84.35 0Q83.85 0 83.52-0.33 83.2-0.65 83.2-1.15L83.2-1.15 83.2-3.35Q81.85-1.6 79.92-0.55 78 0.5 74.85 0.5ZM108.84 0L105.39 0Q102.59 0 100.84-1.07 99.09-2.15 98.29-4.13 97.49-6.1 97.49-8.8L97.49-8.8 97.49-22 93.59-22Q93.09-22 92.77-22.33 92.44-22.65 92.44-23.15L92.44-23.15 92.44-24.85Q92.44-25.35 92.77-25.68 93.09-26 93.59-26L93.59-26 97.49-26 97.49-34.35Q97.49-34.85 97.82-35.18 98.14-35.5 98.64-35.5L98.64-35.5 100.99-35.5Q101.49-35.5 101.82-35.18 102.14-34.85 102.14-34.35L102.14-34.35 102.14-26 108.34-26Q108.89-26 109.19-25.68 109.49-25.35 109.49-24.85L109.49-24.85 109.49-23.15Q109.49-22.65 109.19-22.33 108.89-22 108.34-22L108.34-22 102.14-22 102.14-9.15Q102.14-6.8 102.94-5.45 103.74-4.1 105.79-4.1L105.79-4.1 108.84-4.1Q109.34-4.1 109.67-3.78 109.99-3.45 109.99-2.95L109.99-2.95 109.99-1.15Q109.99-0.65 109.67-0.33 109.34 0 108.84 0L108.84 0ZM125.19 0.5L125.19 0.5Q119.99 0.5 116.94-2.68 113.89-5.85 113.59-11.35L113.59-11.35Q113.54-12 113.54-13.03 113.54-14.05 113.59-14.7L113.59-14.7Q113.79-18.25 115.24-20.93 116.69-23.6 119.22-25.05 121.74-26.5 125.14-26.5L125.14-26.5Q128.94-26.5 131.52-24.9 134.09-23.3 135.44-20.35 136.79-17.4 136.79-13.45L136.79-13.45 136.79-12.6Q136.79-12.05 136.47-11.75 136.14-11.45 135.64-11.45L135.64-11.45 118.34-11.45Q118.34-11.4 118.34-11.25 118.34-11.1 118.34-11L118.34-11Q118.44-8.95 119.24-7.18 120.04-5.4 121.57-4.3 123.09-3.2 125.14-3.2L125.14-3.2Q126.94-3.2 128.14-3.75 129.34-4.3 130.09-4.98 130.84-5.65 131.09-6.05L131.09-6.05Q131.54-6.65 131.79-6.78 132.04-6.9 132.59-6.9L132.59-6.9 135.04-6.9Q135.49-6.9 135.82-6.63 136.14-6.35 136.09-5.85L136.09-5.85Q136.04-5.1 135.29-4.03 134.54-2.95 133.17-1.9 131.79-0.85 129.77-0.18 127.74 0.5 125.19 0.5ZM118.34-15.05L118.34-14.9 132.04-14.9 132.04-15.05Q132.04-17.3 131.22-19.05 130.39-20.8 128.84-21.83 127.29-22.85 125.14-22.85L125.14-22.85Q122.99-22.85 121.47-21.83 119.94-20.8 119.14-19.05 118.34-17.3 118.34-15.05L118.34-15.05ZM167.09 0L164.49 0Q163.99 0 163.66-0.33 163.34-0.65 163.34-1.15L163.34-1.15 163.34-30.55 153.74-30.55Q153.24-30.55 152.91-30.88 152.59-31.2 152.59-31.7L152.59-31.7 152.59-33.8Q152.59-34.35 152.91-34.68 153.24-35 153.74-35L153.74-35 177.84-35Q178.39-35 178.71-34.68 179.04-34.35 179.04-33.8L179.04-33.8 179.04-31.7Q179.04-31.2 178.71-30.88 178.39-30.55 177.84-30.55L177.84-30.55 168.29-30.55 168.29-1.15Q168.29-0.65 167.96-0.33 167.64 0 167.09 0L167.09 0ZM187.58 0L185.13 0Q184.63 0 184.31-0.33 183.98-0.65 183.98-1.15L183.98-1.15 183.98-24.8Q183.98-25.3 184.31-25.65 184.63-26 185.13-26L185.13-26 187.43-26Q187.93-26 188.28-25.65 188.63-25.3 188.63-24.8L188.63-24.8 188.63-22.6Q189.63-24.3 191.38-25.15 193.13-26 195.63-26L195.63-26 197.58-26Q198.08-26 198.41-25.68 198.73-25.35 198.73-24.85L198.73-24.85 198.73-22.8Q198.73-22.3 198.41-22 198.08-21.7 197.58-21.7L197.58-21.7 194.58-21.7Q191.88-21.7 190.33-20.13 188.78-18.55 188.78-15.85L188.78-15.85 188.78-1.15Q188.78-0.65 188.43-0.33 188.08 0 187.58 0L187.58 0ZM210.23 0.5L210.23 0.5Q207.73 0.5 205.68-0.5 203.63-1.5 202.38-3.2 201.13-4.9 201.13-7.05L201.13-7.05Q201.13-10.5 203.93-12.55 206.73-14.6 211.23-15.25L211.23-15.25 218.68-16.3 218.68-17.75Q218.68-20.15 217.31-21.5 215.93-22.85 212.83-22.85L212.83-22.85Q210.63-22.85 209.23-21.95 207.83-21.05 207.28-19.65L207.28-19.65Q206.98-18.9 206.23-18.9L206.23-18.9 203.98-18.9Q203.43-18.9 203.16-19.23 202.88-19.55 202.88-20L202.88-20Q202.88-20.75 203.46-21.85 204.03-22.95 205.23-24 206.43-25.05 208.31-25.78 210.18-26.5 212.88-26.5L212.88-26.5Q215.88-26.5 217.93-25.73 219.98-24.95 221.16-23.65 222.33-22.35 222.86-20.7 223.38-19.05 223.38-17.35L223.38-17.35 223.38-1.15Q223.38-0.65 223.06-0.33 222.73 0 222.23 0L222.23 0 219.93 0Q219.38 0 219.08-0.33 218.78-0.65 218.78-1.15L218.78-1.15 218.78-3.3Q218.13-2.4 217.03-1.53 215.93-0.65 214.28-0.08 212.63 0.5 210.23 0.5ZM211.28-3.25L211.28-3.25Q213.33-3.25 215.03-4.13 216.73-5 217.71-6.85 218.68-8.7 218.68-11.5L218.68-11.5 218.68-12.9 212.88-12.05Q209.33-11.55 207.53-10.38 205.73-9.2 205.73-7.4L205.73-7.4Q205.73-6 206.56-5.08 207.38-4.15 208.66-3.7 209.93-3.25 211.28-3.25ZM241.08 0.5L241.08 0.5Q237.53 0.5 234.95-0.88 232.38-2.25 230.98-4.83 229.58-7.4 229.48-11L229.48-11Q229.43-11.75 229.43-13 229.43-14.25 229.48-15L229.48-15Q229.58-18.6 230.98-21.18 232.38-23.75 234.95-25.13 237.53-26.5 241.08-26.5L241.08-26.5Q243.98-26.5 246.05-25.7 248.13-24.9 249.48-23.65 250.83-22.4 251.5-20.95 252.18-19.5 252.23-18.2L252.23-18.2Q252.28-17.7 251.93-17.4 251.58-17.1 251.08-17.1L251.08-17.1 248.68-17.1Q248.18-17.1 247.93-17.32 247.68-17.55 247.43-18.1L247.43-18.1Q246.53-20.55 244.98-21.55 243.43-22.55 241.13-22.55L241.13-22.55Q238.13-22.55 236.25-20.7 234.38-18.85 234.23-14.75L234.23-14.75Q234.18-12.95 234.23-11.25L234.23-11.25Q234.38-7.1 236.25-5.28 238.13-3.45 241.13-3.45L241.13-3.45Q243.43-3.45 244.98-4.45 246.53-5.45 247.43-7.9L247.43-7.9Q247.68-8.45 247.93-8.7 248.18-8.95 248.68-8.95L248.68-8.95 251.08-8.95Q251.58-8.95 251.93-8.63 252.28-8.3 252.23-7.8L252.23-7.8Q252.18-6.75 251.78-5.65 251.38-4.55 250.5-3.43 249.63-2.3 248.33-1.43 247.03-0.55 245.23-0.03 243.43 0.5 241.08 0.5ZM261.73 0L259.38 0Q258.88 0 258.55-0.33 258.23-0.65 258.23-1.15L258.23-1.15 258.23-34.35Q258.23-34.85 258.55-35.18 258.88-35.5 259.38-35.5L259.38-35.5 261.73-35.5Q262.23-35.5 262.55-35.18 262.88-34.85 262.88-34.35L262.88-34.35 262.88-16.95 272.73-25.15Q273.33-25.65 273.65-25.83 273.98-26 274.73-26L274.73-26 277.38-26Q277.83-26 278.13-25.7 278.43-25.4 278.43-24.95L278.43-24.95Q278.43-24.75 278.3-24.5 278.18-24.25 277.83-24L277.83-24 266.28-14.4 279.08-1.95Q279.68-1.45 279.68-1.05L279.68-1.05Q279.68-0.6 279.38-0.3 279.08 0 278.63 0L278.63 0 276.03 0Q275.28 0 274.93-0.18 274.58-0.35 274.03-0.85L274.03-0.85 262.88-11.5 262.88-1.15Q262.88-0.65 262.55-0.33 262.23 0 261.73 0L261.73 0ZM294.37 0.5L294.37 0.5Q289.17 0.5 286.12-2.68 283.07-5.85 282.77-11.35L282.77-11.35Q282.72-12 282.72-13.03 282.72-14.05 282.77-14.7L282.77-14.7Q282.97-18.25 284.42-20.93 285.87-23.6 288.4-25.05 290.92-26.5 294.32-26.5L294.32-26.5Q298.12-26.5 300.7-24.9 303.27-23.3 304.62-20.35 305.97-17.4 305.97-13.45L305.97-13.45 305.97-12.6Q305.97-12.05 305.65-11.75 305.32-11.45 304.82-11.45L304.82-11.45 287.52-11.45Q287.52-11.4 287.52-11.25 287.52-11.1 287.52-11L287.52-11Q287.62-8.95 288.42-7.18 289.22-5.4 290.75-4.3 292.27-3.2 294.32-3.2L294.32-3.2Q296.12-3.2 297.32-3.75 298.52-4.3 299.27-4.98 300.02-5.65 300.27-6.05L300.27-6.05Q300.72-6.65 300.97-6.78 301.22-6.9 301.77-6.9L301.77-6.9 304.22-6.9Q304.67-6.9 305-6.63 305.32-6.35 305.27-5.85L305.27-5.85Q305.22-5.1 304.47-4.03 303.72-2.95 302.35-1.9 300.97-0.85 298.95-0.18 296.92 0.5 294.37 0.5ZM287.52-15.05L287.52-14.9 301.22-14.9 301.22-15.05Q301.22-17.3 300.4-19.05 299.57-20.8 298.02-21.83 296.47-22.85 294.32-22.85L294.32-22.85Q292.17-22.85 290.65-21.83 289.12-20.8 288.32-19.05 287.52-17.3 287.52-15.05L287.52-15.05ZM315.57 0L313.12 0Q312.62 0 312.3-0.33 311.97-0.65 311.97-1.15L311.97-1.15 311.97-24.8Q311.97-25.3 312.3-25.65 312.62-26 313.12-26L313.12-26 315.42-26Q315.92-26 316.27-25.65 316.62-25.3 316.62-24.8L316.62-24.8 316.62-22.6Q317.62-24.3 319.37-25.15 321.12-26 323.62-26L323.62-26 325.57-26Q326.07-26 326.4-25.68 326.72-25.35 326.72-24.85L326.72-24.85 326.72-22.8Q326.72-22.3 326.4-22 326.07-21.7 325.57-21.7L325.57-21.7 322.57-21.7Q319.87-21.7 318.32-20.13 316.77-18.55 316.77-15.85L316.77-15.85 316.77-1.15Q316.77-0.65 316.42-0.33 316.07 0 315.57 0L315.57 0Z" opacity="1" transform="matrix(1,0,0,1,0,0)" fill="#ffffff" class="undefined-text-0" data-fill-palette-color="quaternary" id="text-0"></path></svg></g></svg></g></svg></g></svg></g><g transform="matrix(1,0,0,1,45.664215283567984,0)"><svg viewBox="0 0 121.83001066002114 65.78820575641141" height="65.78820575641141" width="121.83001066002114"><g><svg version="1.1" xmlns="http://www.w3.org/2000/svg" xmlns:xlink="http://www.w3.org/1999/xlink" x="0" y="0" viewBox="0 0 100 54" enable-background="new 0 0 100 54" xml:space="preserve" height="65.78820575641141" width="121.83001066002114" class="icon-icon-0" data-fill-palette-color="quaternary" id="icon-0"><path d="M91.117 7H75V0H0v44h12.141C12.053 44.487 12 44.987 12 45.5c0 4.694 3.806 8.5 8.5 8.5s8.5-3.806 8.5-8.5c0-0.513-0.053-1.013-0.141-1.5H33v5h39v-5h4.141C76.053 44.487 76 44.987 76 45.5c0 4.694 3.806 8.5 8.5 8.5s8.5-3.806 8.5-8.5c0-0.513-0.053-1.013-0.141-1.5H100V27v-5.566L91.117 7zM75 22V11h13.883l6.769 11H75z" fill="#ffffff" data-fill-palette-color="quaternary"></path></svg></g></svg></g><g></g></svg></g></svg></g></svg></g></svg></g><defs></defs></svg><rect width="342.85155851775386" height="342.85155851775386" fill="none" stroke="none" visibility="hidden"></rect></g></svg></g></svg>